<svg width="154" height="48" viewBox="0 0 154 48" fill="none" xmlns="http://www.w3.org/2000/svg">
<path d="M22.1193 47.399L7.73919 6.57992C7.2792 5.27779 6.73429 4.38847 6.10681 3.9096C5.47697 3.42602 4.51453 3.18305 3.21947 3.18305H2.39856V2.56029H19.666V3.18305H18.1657C16.8258 3.18305 15.8398 3.36233 15.2123 3.72089C14.5825 4.07473 14.2687 4.69041 14.2687 5.57029C14.2687 6.40772 14.4787 7.39139 14.9009 8.52368L22.6854 30.943C24.1503 35.09 25.2802 38.7322 26.0728 41.8696C26.5376 40.2797 27.0825 38.5105 27.7052 36.5667C28.3327 34.6182 28.9413 32.7429 29.5263 30.943L36.6881 9.02378C36.8956 8.35856 37.0608 7.77354 37.1882 7.26873C37.3132 6.76627 37.3769 6.30392 37.3769 5.88167C37.3769 4.88148 37.0301 4.18324 36.3389 3.78694C35.6525 3.38592 34.5957 3.18305 33.1685 3.18305H29.4697V2.56029H44.7934V3.18305H42.5288C41.3139 3.18305 40.3704 3.53925 39.6981 4.24929C39.0305 4.96169 38.4054 6.219 37.8204 8.02359L24.8179 47.399H22.1193Z" fill="#45212B"/>
<path d="M0 30.4137H12.6816V31.3195H0V30.4137Z" fill="#45212B"/>
<path d="M49.4125 6.95735L53.564 2.56029L69.3217 43.4454C69.7793 44.698 70.2841 45.5661 70.8314 46.0496C71.3787 46.5285 72.11 46.7668 73.0299 46.7668H73.8414V47.399H56.574V46.7668H58.0177C59.6076 46.7668 60.7587 46.5828 61.4711 46.2101C62.1812 45.8326 62.5374 45.1627 62.5374 44.2002C62.5374 43.8606 62.4949 43.4525 62.4147 42.9736C62.3322 42.49 62.1836 41.9781 61.9712 41.4356L57.895 30.509L49.4125 6.95735ZM49.4125 6.95735L57.895 30.509L53.3092 18.2614C51.6721 14.0294 50.3749 10.2599 49.4125 6.95735Z" fill="#45212B"/>
<rect x="27.3359" y="27.4703" width="8.36665" height="6.13205" transform="rotate(13.091 27.3359 27.4703)" fill="#EDE8D0"/>
<path d="M25.9297 30.4H59.9197V31.4373H25.9297V30.4Z" fill="#45212B"/>
<path d="M90.7647 47.438C85.8211 47.438 81.947 46.3497 79.14 44.1707C76.3307 41.9869 74.9283 38.3395 74.9283 33.2259V6.83206C74.9283 3.9802 73.2097 2.55427 69.7723 2.55427H68.9602V1.93101H87.2518V2.55427H86.4302C82.9929 2.55427 81.2742 4.04394 81.2742 7.02092V33.6037C81.2742 36.9607 81.7228 39.5812 82.6246 41.4699C83.5311 43.3538 84.7776 44.6617 86.3641 45.3983C87.9553 46.1301 89.759 46.4937 91.7751 46.4937C96.0482 46.4937 99.41 45.3747 101.86 43.1319C104.316 40.8915 105.543 37.8012 105.543 33.8586V6.83206C105.543 3.9802 103.825 2.55427 100.387 2.55427H99.5658V1.93101H112.144V2.55427H111.323C107.885 2.55427 106.167 4.06282 106.167 7.07758V33.9814C106.167 38.1742 104.847 41.4675 102.21 43.859C99.5705 46.2458 95.7554 47.438 90.7647 47.438Z" fill="#45212B"/>
<path d="M106.526 6.06375C105.069 3.626 104.164 2.56299 100.686 2.56299H98.1957V1.93095H111.133L127.385 40.3035L141.471 1.93095H153.135V2.56299H152.312C148.826 2.56299 147.083 4.09282 147.083 7.15008V42.2092C147.083 45.2689 148.826 46.7963 152.312 46.7963H153.135V47.438H136.185V46.7963H136.377C137.78 46.7963 138.895 46.4181 139.719 45.6567C140.547 44.8906 140.964 43.7415 140.964 42.2092V5.24438L125.479 47.438H123.947L106.526 6.06375Z" fill="#45212B"/>
<rect x="110.906" y="1.41565" width="3.59049" height="3.75007" transform="rotate(-23.2208 110.906 1.41565)" fill="#EDE8D0"/>
</svg>
