<svg width="154" height="41" viewBox="0 0 154 41" fill="none" xmlns="http://www.w3.org/2000/svg">
<path d="M22.1193 40.4676L7.73919 -0.351466C7.2792 -1.6536 6.73429 -2.54292 6.10681 -3.02178C5.47697 -3.50536 4.51453 -3.74833 3.21947 -3.74833H2.39856V-4.37109H19.666V-3.74833H18.1657C16.8258 -3.74833 15.8398 -3.56906 15.2123 -3.2105C14.5825 -2.85666 14.2687 -2.24097 14.2687 -1.36109C14.2687 -0.523668 14.4787 0.460008 14.9009 1.5923L22.6854 24.0116C24.1503 28.1586 25.2802 31.8008 26.0728 34.9382C26.5376 33.3483 27.0825 31.5791 27.7052 29.6353C28.3327 27.6869 28.9413 25.8115 29.5263 24.0116L36.6881 2.09239C36.8956 1.42717 37.0608 0.842155 37.1882 0.337343C37.3132 -0.16511 37.3769 -0.627461 37.3769 -1.04971C37.3769 -2.0499 37.0301 -2.74815 36.3389 -3.14445C35.6525 -3.54547 34.5957 -3.74833 33.1685 -3.74833H29.4697V-4.37109H44.7934V-3.74833H42.5288C41.3139 -3.74833 40.3704 -3.39213 39.6981 -2.6821C39.0305 -1.9697 38.4054 -0.712383 37.8204 1.0922L24.8179 40.4676H22.1193Z" fill="#45212B"/>
<path d="M0 23.4824H12.6816V24.3883H0V23.4824Z" fill="#45212B"/>
<path d="M49.4125 0.0259638L53.564 -4.37109L69.3217 36.514C69.7793 37.7666 70.2841 38.6347 70.8314 39.1183C71.3787 39.5971 72.11 39.8354 73.0299 39.8354H73.8414V40.4676H56.574V39.8354H58.0177C59.6076 39.8354 60.7587 39.6514 61.4711 39.2787C62.1812 38.9012 62.5374 38.2313 62.5374 37.2689C62.5374 36.9292 62.4949 36.5211 62.4147 36.0422C62.3322 35.5586 62.1836 35.0467 61.9712 34.5042L57.895 23.5776L49.4125 0.0259638ZM49.4125 0.0259638L57.895 23.5776L53.3092 11.33C51.6721 7.09806 50.3749 3.32847 49.4125 0.0259638Z" fill="#45212B"/>
<rect x="27.3359" y="20.5391" width="8.36665" height="6.13205" transform="rotate(13.091 27.3359 20.5391)" fill="white"/>
<path d="M25.9297 23.4688H59.9197V24.506H25.9297V23.4688Z" fill="#45212B"/>
<path d="M90.7649 40.507C85.8214 40.507 81.9473 39.4187 79.1403 37.2396C76.3309 35.0559 74.9286 31.4084 74.9286 26.2949V-0.0989547C74.9286 -2.95082 73.2099 -4.37675 69.7726 -4.37675H68.9604V-5H87.252V-4.37675H86.4305C82.9931 -4.37675 81.2744 -2.88707 81.2744 0.0899105V26.6727C81.2744 30.0297 81.723 32.6502 82.6248 34.5389C83.5314 36.4228 84.7779 37.7307 86.3644 38.4673C87.9555 39.1991 89.7592 39.5627 91.7753 39.5627C96.0484 39.5627 99.4102 38.4437 101.861 36.2009C104.316 33.9605 105.544 30.8702 105.544 26.9276V-0.0989547C105.544 -2.95082 103.825 -4.37675 100.388 -4.37675H99.566V-5H112.144V-4.37675H111.323C107.886 -4.37675 106.167 -2.86819 106.167 0.14657V27.0504C106.167 31.2432 104.847 34.5365 102.21 36.928C99.5707 39.3148 95.7557 40.507 90.7649 40.507Z" fill="#45212B"/>
<path d="M106.526 -0.867193C105.069 -3.30494 104.164 -4.36796 100.685 -4.36796H98.1954V-5H111.133L127.384 33.3726L141.471 -5H153.135V-4.36796H152.312C148.826 -4.36796 147.083 -2.83813 147.083 0.219133V35.2783C147.083 38.338 148.826 39.8654 152.312 39.8654H153.135V40.507H136.185V39.8654H136.376C137.779 39.8654 138.895 39.4871 139.719 38.7258C140.547 37.9597 140.964 36.8105 140.964 35.2783V-1.68657L125.479 40.507H123.946L106.526 -0.867193Z" fill="#45212B"/>
</svg>
