<svg width="154" height="46" viewBox="0 0 154 46" fill="none" xmlns="http://www.w3.org/2000/svg">
<path d="M22.1193 45.4676L7.73919 4.64853C7.2792 3.3464 6.73429 2.45708 6.10681 1.97822C5.47697 1.49464 4.51453 1.25167 3.21947 1.25167H2.39856V0.628906H19.666V1.25167H18.1657C16.8258 1.25167 15.8398 1.43094 15.2123 1.7895C14.5825 2.14334 14.2687 2.75903 14.2687 3.63891C14.2687 4.47633 14.4787 5.46001 14.9009 6.5923L22.6854 29.0116C24.1503 33.1586 25.2802 36.8008 26.0728 39.9382C26.5376 38.3483 27.0825 36.5791 27.7052 34.6353C28.3327 32.6869 28.9413 30.8115 29.5263 29.0116L36.6881 7.09239C36.8956 6.42717 37.0608 5.84216 37.1882 5.33734C37.3132 4.83489 37.3769 4.37254 37.3769 3.95029C37.3769 2.9501 37.0301 2.25185 36.3389 1.85555C35.6525 1.45453 34.5957 1.25167 33.1685 1.25167H29.4697V0.628906H44.7934V1.25167H42.5288C41.3139 1.25167 40.3704 1.60787 39.6981 2.3179C39.0305 3.0303 38.4054 4.28762 37.8204 6.0922L24.8179 45.4676H22.1193Z" fill="#45212B"/>
<path d="M0 28.4824H12.6816V29.3883H0V28.4824Z" fill="#45212B"/>
<path d="M49.4125 5.02596L53.564 0.628906L69.3217 41.514C69.7793 42.7666 70.2841 43.6347 70.8314 44.1183C71.3787 44.5971 72.11 44.8354 73.0299 44.8354H73.8414V45.4676H56.574V44.8354H58.0177C59.6076 44.8354 60.7587 44.6514 61.4711 44.2787C62.1812 43.9012 62.5374 43.2313 62.5374 42.2689C62.5374 41.9292 62.4949 41.5211 62.4147 41.0422C62.3322 40.5586 62.1836 40.0467 61.9712 39.5042L57.895 28.5776L49.4125 5.02596ZM49.4125 5.02596L57.895 28.5776L53.3092 16.33C51.6721 12.0981 50.3749 8.32848 49.4125 5.02596Z" fill="#45212B"/>
<rect x="27.3359" y="25.5391" width="8.36665" height="6.13205" transform="rotate(13.091 27.3359 25.5391)" fill="white"/>
<path d="M25.9297 28.4688H59.9197V29.506H25.9297V28.4688Z" fill="#45212B"/>
<path d="M90.7649 45.507C85.8214 45.507 81.9473 44.4187 79.1403 42.2396C76.3309 40.0559 74.9286 36.4084 74.9286 31.2949V4.90105C74.9286 2.04918 73.2099 0.623254 69.7726 0.623254H68.9604V0H87.252V0.623254H86.4305C82.9931 0.623254 81.2744 2.11293 81.2744 5.08991V31.6727C81.2744 35.0297 81.723 37.6502 82.6248 39.5389C83.5314 41.4228 84.7779 42.7307 86.3644 43.4673C87.9555 44.1991 89.7592 44.5627 91.7753 44.5627C96.0484 44.5627 99.4102 43.4437 101.861 41.2009C104.316 38.9605 105.544 35.8702 105.544 31.9276V4.90105C105.544 2.04918 103.825 0.623254 100.388 0.623254H99.566V0H112.144V0.623254H111.323C107.886 0.623254 106.167 2.13181 106.167 5.14657V32.0504C106.167 36.2432 104.847 39.5365 102.21 41.928C99.5707 44.3148 95.7557 45.507 90.7649 45.507Z" fill="#45212B"/>
<path d="M106.526 4.13281C105.069 1.69506 104.164 0.632042 100.685 0.632042H98.1954V0H111.133L127.384 38.3726L141.471 0H153.135V0.632042H152.312C148.826 0.632042 147.083 2.16187 147.083 5.21913V40.2783C147.083 43.338 148.826 44.8654 152.312 44.8654H153.135V45.507H136.185V44.8654H136.376C137.779 44.8654 138.895 44.4871 139.719 43.7258C140.547 42.9597 140.964 41.8105 140.964 40.2783V3.31343L125.479 45.507H123.946L106.526 4.13281Z" fill="#45212B"/>
</svg>
