<svg width="51" height="51" viewBox="0 0 51 51" fill="none" xmlns="http://www.w3.org/2000/svg">
<path d="M26.2657 2.62672C26.2657 2.20875 26.0996 1.80791 25.8041 1.51236C25.5086 1.21682 25.1077 1.05078 24.6897 1.05078C24.2718 1.05078 23.8709 1.21682 23.5754 1.51236C23.2798 1.80791 23.1138 2.20875 23.1138 2.62672V20.8866L13.5468 11.3154C13.4015 11.1648 13.2277 11.0447 13.0354 10.962C12.8432 10.8793 12.6364 10.8357 12.4272 10.8338C12.2179 10.8319 12.0104 10.8717 11.8167 10.9508C11.623 11.03 11.4469 11.1469 11.2989 11.2948C11.1509 11.4427 11.0338 11.6186 10.9544 11.8122C10.8751 12.0059 10.8351 12.2134 10.8369 12.4226C10.8386 12.6319 10.8819 12.8387 10.9644 13.031C11.047 13.2233 11.1669 13.3973 11.3174 13.5427L20.8865 23.1139H2.6266C2.20863 23.1139 1.80779 23.28 1.51224 23.5755C1.2167 23.8711 1.05066 24.2719 1.05066 24.6899C1.05066 25.1078 1.2167 25.5087 1.51224 25.8042C1.80779 26.0998 2.20863 26.2658 2.6266 26.2658H20.8865L11.3174 35.8328C11.0302 36.1299 10.8711 36.5279 10.8745 36.9411C10.8779 37.3543 11.0435 37.7497 11.3355 38.042C11.6276 38.3343 12.0228 38.5003 12.436 38.504C12.8492 38.5078 13.2473 38.3492 13.5447 38.0622L23.1138 28.4952V46.753C23.1138 47.171 23.2798 47.5718 23.5754 47.8674C23.8709 48.1629 24.2718 48.3289 24.6897 48.3289C25.1077 48.3289 25.5086 48.1629 25.8041 47.8674C26.0996 47.5718 26.2657 47.171 26.2657 46.753V28.4931L35.8327 38.0622C36.1298 38.3494 36.5278 38.5085 36.941 38.5051C37.3542 38.5017 37.7495 38.3361 38.0419 38.0441C38.3342 37.752 38.5001 37.3568 38.5039 36.9436C38.5077 36.5304 38.349 36.1323 38.0621 35.8349L28.4951 26.2658H46.7529C47.1708 26.2658 47.5717 26.0998 47.8672 25.8042C48.1628 25.5087 48.3288 25.1078 48.3288 24.6899C48.3288 24.2719 48.1628 23.8711 47.8672 23.5755C47.5717 23.28 47.1708 23.1139 46.7529 23.1139H28.493L38.0621 13.5469C38.2127 13.4016 38.3328 13.2278 38.4155 13.0355C38.4982 12.8433 38.5418 12.6365 38.5437 12.4273C38.5456 12.218 38.5058 12.0105 38.4267 11.8168C38.3475 11.6231 38.2306 11.4471 38.0827 11.299C37.9348 11.151 37.7589 11.0339 37.5653 10.9546C37.3716 10.8752 37.1641 10.8353 36.9549 10.837C36.7456 10.8387 36.5388 10.8821 36.3465 10.9646C36.1542 11.0471 35.9802 11.167 35.8348 11.3175L26.2657 20.8845V2.62672Z" fill="#EDE8D0"/>
</svg>
